<?xml version="1.0" encoding="UTF-8"?>
<svg width="15px" height="39px" viewBox="0 0 15 39" version="1.1" xmlns="http://www.w3.org/2000/svg" xmlns:xlink="http://www.w3.org/1999/xlink">
    <!-- Generator: Sketch 51.3 (57544) - http://www.bohemiancoding.com/sketch -->
    <title>Group 45</title>
    <desc>Created with Sketch.</desc>
    <defs></defs>
    <g id="Page-1" stroke="none" stroke-width="1" fill="none" fill-rule="evenodd">
        <g id="landing-page" transform="translate(-1043.000000, -11099.000000)">
            <g id="process" transform="translate(0.000000, 10586.000000)">
                <g id="Group-17" transform="translate(255.000000, 145.000000)">
                    <g id="Group-16" transform="translate(240.000000, 348.000000)">
                        <g id="Group-45" transform="translate(550.000000, 21.000000)">
                            <circle id="Oval" fill="#FFFFFF" cx="5.5" cy="31.5" r="5.5"></circle>
                            <path id="Line" d="M4.75314159,-0.315954425 L-1.41165159,12.0136319 C-1.6179161,12.426161 -1.45070568,12.9277922 -1.03817665,13.1340567 C-0.922216342,13.1920369 -0.794349269,13.2222222 -0.664701706,13.2222222 L11.6648846,13.2222222 C12.1261061,13.2222222 12.5,12.8483283 12.5,12.3871069 C12.5,12.2574593 12.4698147,12.1295922 12.4118345,12.0136319 L6.24704135,-0.315954425 C6.04077684,-0.728483454 5.53914556,-0.895693881 5.12661653,-0.689429366 C4.96499882,-0.608620514 4.83395044,-0.477572131 4.75314159,-0.315954425 Z M5.5,37.9503205 C9.36599325,37.9503205 12.5,34.8163138 12.5,30.9503205 C12.5,27.0843273 9.36599325,23.9503205 5.5,23.9503205 C1.63400675,23.9503205 -1.5,27.0843273 -1.5,30.9503205 C-1.5,34.8163138 1.63400675,37.9503205 5.5,37.9503205 Z M5.5,35.9503205 C2.73857625,35.9503205 0.5,33.7117443 0.5,30.9503205 C0.5,28.1888968 2.73857625,25.9503205 5.5,25.9503205 C8.26142375,25.9503205 10.5,28.1888968 10.5,30.9503205 C10.5,33.7117443 8.26142375,35.9503205 5.5,35.9503205 Z M4.5,12.2222222 L4.5,24.9503205 L4.5,25.9503205 L6.5,25.9503205 L6.5,24.9503205 L6.5,12.2222222 L6.5,11.2222222 L4.5,11.2222222 L4.5,12.2222222 Z" fill="#D3EEEC" fill-rule="nonzero"></path>
                        </g>
                    </g>
                </g>
            </g>
        </g>
    </g>
</svg>